<?xml version="1.0" encoding="UTF-8"?>
<svg width="41px" height="40px" viewBox="0 0 41 40" version="1.1" xmlns="http://www.w3.org/2000/svg" xmlns:xlink="http://www.w3.org/1999/xlink">
    <title>Instagram</title>
    <g id="Symbols" stroke="none" stroke-width="1" fill="none" fill-rule="evenodd">
        <g id="01-Navigation-/-Footer-/-FDS-768" transform="translate(-610.000000, -624.000000)">
            <g id="Social-bar" transform="translate(0.000000, 552.000000)">
                <g id="Social-Icons" transform="translate(481.000000, 32.000000)">
                    <g id="Icons" transform="translate(0.000000, 40.000000)">
                        <g id="Instagram" transform="translate(129.710468, 0.000000)">
                            <polygon id="Fill-229" fill="#8600C2" points="0 0 40 0 40 40 0 40"></polygon>
                            <g id="instagram" transform="translate(10.975501, 11.000000)" fill="#FFFFFF" fill-rule="nonzero">
                                <path d="M12.6095566,0 L5.35035432,0 C2.40015651,0 0,2.405514 0,5.36229706 L0,12.6377029 C0,15.594486 2.40015651,18 5.35035432,18 L12.6095566,18 C15.5597544,18 17.959911,15.594486 17.959911,12.6377029 L17.959911,5.36229706 C17.959911,2.405514 15.5597219,0 12.6095566,0 Z M16.1531446,12.6377029 C16.1531446,14.5991246 14.5666098,16.1892007 12.6095566,16.1892007 L5.35035432,16.1892007 C3.39330112,16.1892007 1.80676638,14.5991246 1.80676638,12.6377029 L1.80676638,5.36229706 C1.80676638,3.40084278 3.39330112,1.81079933 5.35035432,1.81079933 L12.6095566,1.81079933 C14.5666098,1.81079933 16.1531446,3.40084278 16.1531446,5.36229706 L16.1531446,12.6377029 L16.1531446,12.6377029 Z" id="Shape"></path>
                                <path d="M8.97995548,4.29850746 C6.39332206,4.29850746 4.28893396,6.40760025 4.28893396,8.99998351 C4.28893396,11.5923668 6.39332206,13.7014925 8.97995548,13.7014925 C11.5665889,13.7014925 13.670977,11.5923997 13.670977,8.99998351 C13.670977,6.40756726 11.5665889,4.29850746 8.97995548,4.29850746 Z M8.97995548,11.8728072 C7.39688342,11.8728072 6.11357303,10.5866278 6.11357303,9.00001649 C6.11357303,7.41340523 7.39691634,6.1272258 8.97995548,6.1272258 C10.5630275,6.1272258 11.8463379,7.41340523 11.8463379,9.00001649 C11.8463379,10.5865948 10.5629946,11.8728072 8.97995548,11.8728072 Z" id="Shape"></path>
                                <ellipse id="Oval" cx="13.670977" cy="4.29850746" rx="1.07223349" ry="1.07462687"></ellipse>
                            </g>
                        </g>
                    </g>
                </g>
            </g>
        </g>
    </g>
</svg>