<?xml version="1.0" encoding="UTF-8"?>
<svg width="41px" height="40px" viewBox="0 0 41 40" version="1.1" xmlns="http://www.w3.org/2000/svg" xmlns:xlink="http://www.w3.org/1999/xlink">
    <title>twitter</title>
    <g id="Symbols" stroke="none" stroke-width="1" fill="none" fill-rule="evenodd">
        <g id="01-Navigation-/-Footer-/-FDS-768" transform="translate(-524.000000, -624.000000)">
            <g id="Social-bar" transform="translate(0.000000, 552.000000)">
                <g id="Social-Icons" transform="translate(481.000000, 32.000000)">
                    <g id="Icons" transform="translate(0.000000, 40.000000)">
                        <g id="twitter" transform="translate(43.403118, 0.000000)">
                            <polygon id="Fill-232" fill="#68C6E1" points="0 0 40 0 40 40 0 40"></polygon>
                            <path d="M29.5558783,15.3342536 C28.9261827,15.6387416 28.2569978,15.8358575 27.5477898,15.9272039 C28.2703388,15.4613907 28.8253247,14.7279486 29.0878757,13.8486729 C28.4117535,14.277627 27.6635897,14.5842517 26.8663311,14.7637393 C26.2318328,14.0292289 25.3209088,13.5714286 24.3197996,13.5714286 C22.3917572,13.5714286 20.8292584,15.253591 20.8292584,17.3342587 C20.8292584,17.6264604 20.8596759,17.9149226 20.9173091,18.186825 C18.0217768,18.037252 15.4458951,16.5335088 13.7227705,14.2621355 C13.423932,14.8160899 13.2526334,15.4613907 13.2526334,16.153166 C13.2526334,17.4549856 13.8679207,18.6136424 14.8060603,19.2787082 C14.2329307,19.2552039 13.6944876,19.094947 13.2243505,18.8107583 L13.2243505,18.8620404 C13.2243505,20.6814896 14.4277094,22.1996559 16.0243612,22.5511525 C15.7319263,22.6366228 15.4224149,22.6756186 15.1022307,22.6756186 C14.8781018,22.6756186 14.6646457,22.6595929 14.4495886,22.6083108 C14.8919764,24.1083146 16.1823187,25.198061 17.7090636,25.220497 C16.5142429,26.2343884 15.0099109,26.8300096 13.3743034,26.8300096 C13.0914741,26.8300096 12.8129138,26.8134498 12.5407573,26.7776591 C14.0845787,27.8497772 15.9165658,28.4747788 17.8921022,28.4747788 C24.3123287,28.4747788 27.8252828,22.7402555 27.8252828,17.7696231 C27.8252828,17.6104347 27.8215473,17.4496437 27.8135427,17.2883185 C28.4950013,16.7509239 29.0878757,16.0869265 29.5558783,15.3342536" id="Fill-233" fill="#FFFFFE"></path>
                        </g>
                    </g>
                </g>
            </g>
        </g>
    </g>
</svg>