<?xml version="1.0" encoding="UTF-8"?>
<svg width="41px" height="40px" viewBox="0 0 41 40" version="1.1" xmlns="http://www.w3.org/2000/svg" xmlns:xlink="http://www.w3.org/1999/xlink">
    <title>Youtube</title>
    <g id="Symbols" stroke="none" stroke-width="1" fill="none" fill-rule="evenodd">
        <g id="01-Navigation-/-Footer-/-FDS-768" transform="translate(-567.000000, -624.000000)">
            <g id="Social-bar" transform="translate(0.000000, 552.000000)">
                <g id="Social-Icons" transform="translate(481.000000, 32.000000)">
                    <g id="Icons" transform="translate(0.000000, 40.000000)">
                        <g id="Youtube" transform="translate(86.806236, 0.000000)">
                            <polygon id="Fill-228" fill="#CD332D" points="0 0 40 0 40 40 0 40"></polygon>
                            <g id="Path-3-+-Path-3" transform="translate(8.979955, 6.000000)" fill="#FFFFFF">
                                <path d="M20.1848315,14.1217414 C21.1338505,15.1293929 21.19627,19.8835408 21.2002764,20.4343054 L21.2003003,20.533639 C21.1965564,21.061496 21.1364289,25.8402969 20.1848315,26.8514521 C19.2258521,27.8717579 11.4393509,27.9353552 10.7921407,27.9388837 L10.7065799,27.9388837 C10.0594564,27.9353553 2.27394427,27.8717601 1.3124437,26.8515059 C0.420528843,25.9030802 0.319230925,21.6429682 0.307731571,20.679929 L0.307729937,20.2951244 C0.31922112,19.3372779 0.420484721,15.0701193 1.3124437,14.1217414 C2.21132664,13.1673993 9.07299801,13.0565977 10.4927594,13.0444491 L11.0059913,13.0444491 C12.4259419,13.0565977 19.2883942,13.1673993 20.1848315,14.1217414 Z M17.457349,18.1080862 C16.9104528,18.1080862 16.4674956,18.2879859 16.1230671,18.6485382 C15.7785394,19.0083915 15.6049105,19.4778192 15.6049105,20.0486489 L15.6049105,20.0486489 L15.6049105,23.0146833 C15.6049105,23.6513221 15.7634995,24.1504822 16.0766569,24.5124323 C16.389715,24.8766945 16.8203623,25.056648 17.3658688,25.056648 C17.9727757,25.056648 18.4294822,24.8871788 18.7329108,24.5465735 C19.0404097,24.2023122 19.1922481,23.6922377 19.1922481,23.0147371 L19.1922481,23.0147371 L19.1922481,22.6755835 L17.9386257,22.6755835 L17.9386257,22.9768861 C17.9386257,23.3656653 17.8962856,23.6158905 17.8169663,23.7299274 C17.7363068,23.8439106 17.5954381,23.9010097 17.3932185,23.9010097 C17.1990401,23.9010097 17.0623408,23.8349855 16.9803412,23.7010015 C16.9011707,23.5655122 16.8614118,23.324911 16.8614118,22.9768861 L16.8614118,22.9768861 L16.8614118,21.7323194 L19.1921984,21.7322656 L19.1921984,20.0486489 C19.1921984,19.4222256 19.04309,18.9424211 18.7437316,18.6092893 C18.4443732,18.275351 18.0150661,18.1080862 17.457349,18.1080862 Z M8.28306275,18.2716412 L7.06493053,18.2716412 L7.06493053,23.7935859 C7.06493053,24.1882794 7.13739999,24.4806031 7.27821907,24.6784068 C7.42305872,24.8767482 7.63222742,24.9729887 7.91525541,24.9729887 C8.14492404,24.9729887 8.38010233,24.9049752 8.62347067,24.7627651 C8.86812955,24.6235121 9.10057783,24.4199017 9.32746681,24.1504284 L9.32746681,24.1504284 L9.32746681,24.8767482 L10.5455494,24.8767482 L10.545599,18.2717487 L9.32751644,18.2717487 L9.32751644,23.2893181 C9.21136676,23.4321734 9.0869774,23.5491674 8.94888833,23.6425045 C8.81218908,23.7350352 8.69737959,23.7817037 8.60848041,23.7817037 C8.4950111,23.7817037 8.41162158,23.7476163 8.35831186,23.6765382 C8.3090227,23.6069655 8.28306275,23.494434 8.28306275,23.3374921 L8.28306275,23.3374921 L8.28306275,18.2716412 Z M12.6933258,15.9246104 L11.4616428,15.9246104 L11.4616428,24.8767482 L12.6933258,24.8767482 L12.6933258,24.3703836 C12.8518155,24.5731875 13.0282737,24.7213118 13.2141132,24.8174985 C13.400052,24.9137927 13.6120003,24.9603 13.8512488,24.9603 C14.2121567,24.9603 14.4896253,24.8374455 14.6796343,24.5872741 C14.8708842,24.3376941 14.9666829,23.9792924 14.9667821,23.5121767 L14.9667821,23.5121767 L14.9667821,19.8472428 C14.9667821,19.306737 14.8655731,18.8943547 14.6605242,18.6123002 C14.4582054,18.3323963 14.1642573,18.1916917 13.7773399,18.1916917 C13.58882,18.1916917 13.4013922,18.2435755 13.2155527,18.3486873 C13.0323439,18.4522399 12.858715,18.6069774 12.6933258,18.8069318 L12.6933258,18.8069318 L12.6933258,15.9246104 Z M6.52905361,15.9246104 L2.31435882,15.9246104 L2.31435882,17.2247707 L3.73476025,17.2247707 L3.73476025,24.8766945 L5.10870181,24.8766945 L5.10870181,17.2247707 L6.52910324,17.2247707 L6.52905361,15.9246104 Z M13.2031435,19.2400676 C13.3671429,19.2400676 13.4943615,19.2978119 13.5832607,19.4118488 C13.669281,19.5272836 13.7117203,19.6968066 13.7117203,19.9197189 L13.7117203,23.3300187 C13.7117203,23.5424467 13.6747906,23.6920227 13.6052001,23.7846071 C13.5355103,23.8793959 13.4260615,23.9260644 13.2770524,23.9260644 C13.1732126,23.9260644 13.076173,23.9007946 12.9831044,23.8542336 C12.8888444,23.808264 12.7917056,23.7275618 12.6933258,23.6209983 L12.6933258,19.5059386 C12.7766657,19.4148597 12.8600552,19.3474913 12.9447849,19.3044788 C13.0296139,19.2600684 13.1156838,19.2400676 13.2031435,19.2400676 Z M17.4055781,19.2637783 C17.5901766,19.2637783 17.7282161,19.3222215 17.8102158,19.4459362 C17.8950447,19.5614785 17.9387746,19.7613254 17.9387746,20.0375194 L17.9387746,20.0375194 L17.9387746,20.7045895 L16.8615111,20.7045895 L16.8615111,20.0375194 C16.8615111,19.7612716 16.9025109,19.5613172 16.9872406,19.4459362 C17.0720696,19.3222215 17.2114989,19.2637783 17.4055781,19.2637783 Z" id="Path-3"></path>
                                <path d="M10.5889226,2.9368321 C11.1562195,2.9368321 11.6224562,3.11296828 11.9860941,3.46545572 C12.3469523,3.81713667 12.5288209,4.27097231 12.5288209,4.82556474 L12.5288209,8.58378192 C12.5288209,9.20568891 12.3511218,9.692913 11.9970638,10.0476048 C11.6388363,10.4014902 11.1508091,10.5792393 10.5260826,10.5792393 C9.92731612,10.5792393 9.44613876,10.395576 9.08518128,10.0314214 C8.72700345,9.66560006 8.54523416,9.17326824 8.54523416,8.55507108 L8.54513488,4.78481039 C8.54513488,4.21989497 8.72968383,3.77122083 9.10017154,3.43803525 C9.46931906,3.10409696 9.96687651,2.9368321 10.5889226,2.9368321 Z M15.011297,3.12038794 L15.011297,8.69776505 C15.011297,8.87029894 15.0428162,8.99465883 15.1001962,9.07165121 C15.1562359,9.14875111 15.2505455,9.18789249 15.3791043,9.18789249 C15.4788739,9.18789249 15.6074328,9.13611619 15.7618523,9.03466046 C15.9149316,8.93250577 16.0571405,8.80207036 16.1842599,8.64222516 L16.1842599,3.12038794 L17.5569109,3.12038794 L17.5569109,10.395576 L16.1843592,10.395576 L16.1843592,9.59226375 C15.934141,9.8876521 15.670372,10.1150269 15.3954844,10.2689579 C15.1220859,10.4236954 14.8568278,10.5007953 14.5997598,10.5007953 C14.2799511,10.5007953 14.043383,10.3919199 13.8821632,10.1757283 C13.7221844,9.95878402 13.6415249,9.63452353 13.6415249,9.20058117 L13.6415249,3.12038794 L15.011297,3.12038794 Z M4.80893708,0.534153846 L5.81239093,4.47603441 L5.90948015,4.47603441 L6.86359521,0.534153846 L8.43439559,0.534153846 L6.63675587,6.30406566 L6.63675587,10.3955222 L5.0918658,10.3955222 L5.0918658,6.48842799 L3.25322623,0.534153846 L4.80893708,0.534153846 Z M10.5232533,4.197636 C10.3551341,4.197636 10.2198247,4.24581 10.1145454,4.34350214 C10.010656,4.44200077 9.95734628,4.57001672 9.95734628,4.72921674 L9.95734628,8.69260355 C9.95729664,8.89175142 10.0078764,9.04498346 10.1049159,9.15531052 C10.2020052,9.26488486 10.3414841,9.31891931 10.5232533,9.31891931 C10.7092418,9.31891931 10.8554712,9.26273424 10.9662105,9.15235341 C11.0756593,9.03976819 11.1303588,8.88658992 11.1303588,8.69254978 L11.1303588,4.72921674 C11.1303588,4.57012425 11.0742198,4.44200077 10.9621403,4.34350214 C10.8500608,4.24581 10.7037817,4.197636 10.5232533,4.197636 Z" id="Path-2"></path>
                            </g>
                        </g>
                    </g>
                </g>
            </g>
        </g>
    </g>
</svg>